<svg width="107" height="97" viewBox="0 0 107 97" fill="none" xmlns="http://www.w3.org/2000/svg">
<rect width="107" height="97" rx="48.5" fill="white"/>
<path d="M39.2955 38.8409C39.1136 37.0076 38.3333 35.5833 36.9545 34.5682C35.5758 33.553 33.7045 33.0455 31.3409 33.0455C29.7348 33.0455 28.3788 33.2727 27.2727 33.7273C26.1667 34.1667 25.3182 34.7803 24.7273 35.5682C24.1515 36.3561 23.8636 37.25 23.8636 38.25C23.8333 39.0833 24.0076 39.8106 24.3864 40.4318C24.7803 41.053 25.3182 41.5909 26 42.0455C26.6818 42.4848 27.4697 42.8712 28.3636 43.2045C29.2576 43.5227 30.2121 43.7955 31.2273 44.0227L35.4091 45.0227C37.4394 45.4773 39.303 46.0833 41 46.8409C42.697 47.5985 44.1667 48.5303 45.4091 49.6364C46.6515 50.7424 47.6136 52.0455 48.2955 53.5455C48.9924 55.0455 49.3485 56.7652 49.3636 58.7045C49.3485 61.553 48.6212 64.0227 47.1818 66.1136C45.7576 68.1894 43.697 69.803 41 70.9545C38.3182 72.0909 35.0833 72.6591 31.2955 72.6591C27.5379 72.6591 24.2652 72.0833 21.4773 70.9318C18.7045 69.7803 16.5379 68.0758 14.9773 65.8182C13.4318 63.5455 12.6212 60.7348 12.5455 57.3864H22.0682C22.1742 58.947 22.6212 60.25 23.4091 61.2955C24.2121 62.3258 25.2803 63.1061 26.6136 63.6364C27.9621 64.1515 29.4848 64.4091 31.1818 64.4091C32.8485 64.4091 34.2955 64.1667 35.5227 63.6818C36.7652 63.197 37.7273 62.5227 38.4091 61.6591C39.0909 60.7955 39.4318 59.803 39.4318 58.6818C39.4318 57.6364 39.1212 56.7576 38.5 56.0455C37.8939 55.3333 37 54.7273 35.8182 54.2273C34.6515 53.7273 33.2197 53.2727 31.5227 52.8636L26.4545 51.5909C22.5303 50.6364 19.4318 49.1439 17.1591 47.1136C14.8864 45.0833 13.7576 42.3485 13.7727 38.9091C13.7576 36.0909 14.5076 33.6288 16.0227 31.5227C17.553 29.4167 19.6515 27.7727 22.3182 26.5909C24.9848 25.4091 28.0152 24.8182 31.4091 24.8182C34.8636 24.8182 37.8788 25.4091 40.4545 26.5909C43.0455 27.7727 45.0606 29.4167 46.5 31.5227C47.9394 33.6288 48.6818 36.0682 48.7273 38.8409H39.2955ZM55.983 72V25.4545H65.8239V45.9773H66.4375L83.1875 25.4545H94.983L77.7102 46.2955L95.1875 72H83.4148L70.6648 52.8636L65.8239 58.7727V72H55.983Z" fill="#F54900"/>
</svg>
